<?xml version="1.0" standalone="no"?>
<!DOCTYPE svg PUBLIC "-//W3C//DTD SVG 20010904//EN"
 "http://www.w3.org/TR/2001/REC-SVG-20010904/DTD/svg10.dtd">
<svg version="1.0" xmlns="http://www.w3.org/2000/svg"
 width="800.000000pt" height="400.000000pt" viewBox="0 0 800.000000 400.000000"
 preserveAspectRatio="xMidYMid meet">
<metadata>
Created by potrace 1.10, written by Peter Selinger 2001-2011
</metadata>
<g transform="translate(0.000000,400.000000) scale(0.080000,-0.080000)"
fill="#3dbb85" stroke="none">
<!-- P Logo (left side) -->
<g id="p-logo">
<path d="M1421 3224 c-113 -30 -193 -76 -270 -153 -78 -78 -111 -128 -148
-232 -25 -71 -27 -85 -32 -329 -3 -140 -4 -395 -1 -566 5 -294 6 -313 25 -334
53 -58 125 -64 181 -15 32 27 36 37 45 105 10 81 42 157 86 206 59 65 138 96
333 129 183 31 255 67 372 190 96 100 147 225 155 380 5 83 2 113 -16 178 -22
80 -62 169 -87 195 -8 7 -14 18 -14 22 0 17 -126 135 -166 155 -21 11 -46 25
-54 31 -14 11 -108 41 -160 51 -65 13 -176 7 -249 -13z m334 -33 c228 -82 394
-318 395 -562 0 -128 -63 -287 -155 -387 -99 -110 -211 -164 -389 -188 -262
-37 -387 -141 -406 -340 -6 -58 -13 -81 -30 -99 -31 -33 -79 -41 -120 -20 -62
32 -61 30 -58 619 l4 531 24 71 c68 191 220 335 413 389 75 21 243 14 322 -14z"/>
<path d="M1463 2976 c-61 -20 -106 -51 -157 -107 -75 -83 -79 -105 -85 -422
-4 -152 -4 -276 -1 -275 158 80 147 77 418 113 93 12 200 92 248 187 39 75 45
208 14 290 -28 76 -104 159 -177 194 -67 33 -191 43 -260 20z m216 -30 c90
-30 174 -122 207 -224 21 -66 14 -160 -16 -224 -18 -38 -79 -110 -122 -143
-22 -18 -99 -46 -137 -50 -169 -20 -224 -29 -274 -50 -98 -39 -92 -53 -92 221
1 236 1 240 26 294 46 97 130 166 233 191 39 9 127 2 175 -15z"/>
</g>
<!-- plekk Text (right side, vertically centered with P icon) -->
<g id="plekk-text" transform="translate(2000, 1500)">
<path d="M1079 1433 c-51 -8 -60 -31 -63 -155 -2 -62 -4 -119 -5 -125 0 -7
-25 12 -53 41 -72 73 -144 93 -230 62 -21 -8 -58 -11 -87 -8 -63 6 -98 -3
-111 -28 -7 -13 -11 -121 -10 -307 0 -280 1 -288 22 -310 22 -23 84 -32 123
-17 26 10 43 55 38 106 -2 26 0 49 4 51 5 2 28 1 53 -2 84 -13 172 24 215 89
25 37 37 34 40 -9 4 -50 33 -73 94 -74 64 0 81 15 88 77 3 25 10 46 14 46 5 0
9 -4 9 -8 0 -16 71 -82 108 -101 21 -10 62 -22 92 -26 72 -9 153 21 212 77
l43 41 8 -36 c12 -51 37 -70 94 -69 61 1 93 33 93 92 0 50 15 45 54 -16 16
-25 39 -52 51 -60 30 -20 104 -25 141 -9 22 9 36 10 49 2 10 -5 35 -12 55 -14
29 -4 43 1 68 22 27 23 32 34 32 71 0 24 4 44 8 44 5 0 26 -25 47 -55 45 -66
59 -75 126 -79 42 -2 57 2 78 20 23 20 24 24 12 50 -7 16 -42 73 -79 126 l-66
98 72 74 c40 41 72 80 72 88 0 32 -35 48 -104 48 -64 0 -68 -2 -110 -40 -24
-22 -46 -40 -50 -40 -3 0 -6 45 -6 100 0 54 -5 111 -12 125 -20 45 -112 54
-153 15 -22 -21 -25 -31 -25 -94 l0 -71 -78 3 -78 3 -47 -42 c-26 -23 -50 -40
-52 -38 -2 3 -5 51 -6 108 -3 91 -6 108 -25 130 -19 22 -29 25 -74 23 -82 -3
-89 -18 -90 -177 l0 -130 -45 52 c-55 63 -118 95 -185 95 -85 -1 -130 -21
-192 -84 l-58 -59 0 129 c0 126 -1 130 -26 156 -26 25 -39 28 -95 19z m86
-343 l0 -310 -57 0 -58 0 0 310 0 310 58 0 57 0 0 -310z m665 138 l0 -173 76
83 76 82 69 0 c38 0 69 -2 69 -4 0 -2 -39 -42 -87 -89 -81 -80 -86 -87 -72
-104 9 -10 50 -69 93 -130 l77 -113 -68 0 -68 1 -64 95 c-61 90 -65 94 -83 78
-14 -14 -18 -32 -18 -96 l0 -78 -55 0 -55 0 0 310 0 310 55 0 55 0 0 -172z
m448 2 c-2 -94 -1 -170 1 -170 2 0 38 36 78 80 l75 80 71 0 72 0 -89 -89 -89
-89 25 -33 c14 -19 55 -78 91 -131 l67 -98 -67 0 -68 1 -59 90 c-33 50 -64 93
-69 96 -21 13 -36 -34 -37 -109 l0 -78 -55 0 -55 0 0 310 0 310 55 0 56 0 -3
-170z m-738 -15 c63 -32 101 -98 114 -195 l6 -45 -165 4 c-178 3 -177 3 -150
-49 22 -42 53 -60 106 -60 36 0 52 5 72 25 23 23 30 25 76 19 28 -4 51 -11 51
-17 0 -26 -57 -81 -107 -104 -111 -51 -240 -11 -292 91 -33 65 -35 170 -3 232
25 49 82 101 120 110 15 3 32 7 37 10 19 7 108 -7 135 -21z m-662 1 c73 -38
115 -118 114 -214 -1 -119 -74 -216 -170 -229 -47 -6 -103 10 -127 37 -10 11
-21 20 -24 20 -3 0 -4 -47 -3 -105 l4 -105 -61 0 -61 0 0 300 0 300 61 0 c60
0 61 0 55 -25 -4 -14 -2 -25 4 -25 5 0 10 4 10 9 0 5 15 18 33 30 38 25 124
28 165 7z m1252 -208 l-1 -153 -27 32 c-15 18 -44 59 -64 92 l-37 59 56 61
c30 34 59 61 64 61 5 0 9 -69 9 -152z m-630 -77 c0 -11 -25 -21 -55 -21 -25 0
-39 12 -28 24 10 9 83 7 83 -3z"/>
<path d="M1392 1137 c-23 -13 -44 -40 -55 -69 -6 -16 3 -18 104 -18 110 0 110
0 104 23 -18 59 -101 94 -153 64z"/>
<path d="M700 1102 c-78 -78 -32 -227 70 -227 76 0 129 73 114 159 -10 60 -51
96 -109 96 -38 0 -52 -5 -75 -28z m122 -29 c38 -34 30 -113 -15 -147 -25 -19
-29 -19 -61 -3 -24 11 -36 25 -41 46 -20 94 54 159 117 104z"/>
</g>
</g>
</svg>
