<?xml version="1.0" standalone="no"?>
<!DOCTYPE svg PUBLIC "-//W3C//DTD SVG 20010904//EN"
 "http://www.w3.org/TR/2001/REC-SVG-20010904/DTD/svg10.dtd">
<svg version="1.0" xmlns="http://www.w3.org/2000/svg"
 width="400.000000pt" height="400.000000pt" viewBox="0 0 400.000000 400.000000"
 preserveAspectRatio="xMidYMid meet">
<metadata>
Created for plekk map pins - P logo only
</metadata>
<g transform="translate(0.000000,400.000000) scale(0.160000,-0.160000)"
fill="#3dbb85" stroke="none">
<!-- P Logo only -->
<path d="M1421 3224 c-113 -30 -193 -76 -270 -153 -78 -78 -111 -128 -148
-232 -25 -71 -27 -85 -32 -329 -3 -140 -4 -395 -1 -566 5 -294 6 -313 25 -334
53 -58 125 -64 181 -15 32 27 36 37 45 105 10 81 42 157 86 206 59 65 138 96
333 129 183 31 255 67 372 190 96 100 147 225 155 380 5 83 2 113 -16 178 -22
80 -62 169 -87 195 -8 7 -14 18 -14 22 0 17 -126 135 -166 155 -21 11 -46 25
-54 31 -14 11 -108 41 -160 51 -65 13 -176 7 -249 -13z m334 -33 c228 -82 394
-318 395 -562 0 -128 -63 -287 -155 -387 -99 -110 -211 -164 -389 -188 -262
-37 -387 -141 -406 -340 -6 -58 -13 -81 -30 -99 -31 -33 -79 -41 -120 -20 -62
32 -61 30 -58 619 l4 531 24 71 c68 191 220 335 413 389 75 21 243 14 322 -14z"/>
<path d="M1463 2976 c-61 -20 -106 -51 -157 -107 -75 -83 -79 -105 -85 -422
-4 -152 -4 -276 -1 -275 158 80 147 77 418 113 93 12 200 92 248 187 39 75 45
208 14 290 -28 76 -104 159 -177 194 -67 33 -191 43 -260 20z m216 -30 c90
-30 174 -122 207 -224 21 -66 14 -160 -16 -224 -18 -38 -79 -110 -122 -143
-22 -18 -99 -46 -137 -50 -169 -20 -224 -29 -274 -50 -98 -39 -92 -53 -92 221
1 236 1 240 26 294 46 97 130 166 233 191 39 9 127 2 175 -15z"/>
</g>
</svg>

